<svg width="106.561768" height="50.250000" viewBox="0 0 106.562 50.25" fill="none" xmlns="http://www.w3.org/2000/svg" xmlns:xlink="http://www.w3.org/1999/xlink">
	<desc>
			Created with Pixso.
	</desc>
	<defs/>
	<path id="Logo" d="M74.87 34.79Q75.01 33.42 75.29 31.74Q75.84 28.35 76.69 25.44Q77.13 23.9 77.84 23.33Q78.57 22.74 80.15 22.74Q81.84 22.74 82.36 23.52Q82.6 23.87 82.6 24.38Q82.6 25.58 81.68 29.95Q80.54 35.22 80.54 37.1Q80.54 38.54 80.92 39.31Q81.1 39.65 81.37 39.84Q81.71 40.07 82.21 40.07Q83.08 40.07 84.37 38.88Q85.51 37.82 87.31 35.7Q87.3 35.42 87.3 35.13Q87.3 32.75 88.02 30.61Q88.3 29.77 88.7 28.96Q89.72 26.87 91.32 25.4Q91.91 24.87 92.56 24.43Q93.51 23.78 94.56 23.38Q96.24 22.74 98.15 22.74Q100.29 22.74 101.77 23.72Q102.22 24.02 102.61 24.41Q102.96 24.75 103.24 25.15Q104.3 26.65 104.3 28.89Q104.3 30.45 103.77 31.79Q103.18 33.32 101.92 34.58Q99.55 36.96 93.83 38.34Q94.32 39.27 95.08 39.8Q96.13 40.55 97.72 40.55Q99.69 40.55 100.96 39.64Q102.23 38.73 103.91 36.57Q104.4 35.97 104.97 35.86Q105.09 35.84 105.21 35.84Q105.45 35.84 105.66 35.93Q105.97 36.07 106.19 36.43Q106.56 37 106.56 38.01Q106.56 39.57 105.89 40.74Q105.82 40.87 105.74 40.99Q105.06 42.02 104.18 42.82Q103.3 43.62 102.21 44.2Q100.03 45.35 97.01 45.35Q93.29 45.35 90.91 43.56Q90.34 43.13 89.85 42.59Q89.57 42.29 89.32 41.96Q88.88 41.39 88.54 40.74Q84.36 45.35 80.68 45.35Q78.54 45.35 77.21 44.32Q76.59 43.84 76.14 43.14Q75.51 42.15 75.16 40.87Q73.59 42.53 71.83 43.72Q70.96 44.3 70.02 44.67Q68.31 45.35 66.33 45.35Q64.32 45.35 62.8 44.48Q61.13 43.52 60.06 41.51Q59.58 40.6 59.21 39.57Q57.15 42.1 54.78 43.72Q53.92 44.31 52.96 44.69Q51.3 45.35 49.38 45.35Q47.99 45.35 47.05 44.7Q46.43 44.28 46 43.58Q44.92 41.8 44.92 38.58Q44.11 41.84 42.47 43.6Q41.08 45.09 39.52 45.31Q39.24 45.35 38.96 45.35Q38.16 45.35 37.46 45.07Q36.3 44.61 35.44 43.37Q34.08 41.37 34.08 38.4Q34.08 34.79 34.56 31.79Q35.04 28.79 36.14 25.44Q36.62 24 37.48 23.37Q38.34 22.74 40.22 22.74Q41.27 22.74 41.68 23.08Q41.77 23.15 41.83 23.23Q42.09 23.56 42.09 24.09Q42.09 24.48 41.57 26.68Q41.09 28.46 40.79 29.9Q39.83 34.94 39.83 36.62Q39.83 37.62 40.07 38.03Q40.16 38.2 40.31 38.3Q40.52 38.44 40.84 38.44Q41.57 38.44 42.64 37Q43.72 35.56 44.94 32.63Q46.17 29.7 47.32 25.44Q47.71 24 48.49 23.37Q49.29 22.74 50.87 22.74Q51.97 22.74 52.41 23.01Q52.48 23.05 52.54 23.11Q52.84 23.39 52.84 24Q52.84 25.19 51.64 30.57Q50.3 36.71 50.3 38.15Q50.3 39.07 50.68 39.57Q50.89 39.84 51.16 39.96Q51.4 40.07 51.69 40.07Q52.65 40.07 53.96 38.9Q55.29 37.72 57.49 35.08Q57.81 34.72 58.16 34.56Q58.02 33.14 58.02 31.58Q58.02 25.72 59.53 18.23Q61.05 10.74 64 5.37Q66.5 0.81 69.82 0.12Q70.41 0 71.03 0Q71.99 0 72.77 0.36Q73.88 0.88 74.65 2.13Q75.97 4.26 75.97 8.25Q75.97 13.96 72.81 21.5Q69.65 29.03 64.22 36.43Q64.55 38.4 65.31 39.24Q65.58 39.53 65.91 39.72Q66.52 40.07 67.34 40.07Q68.58 40.07 69.63 39.62Q70.25 39.36 70.8 38.95Q72.28 37.81 74.58 35.08Q74.72 34.92 74.87 34.79ZM32.75 10.46Q33.36 9.73 33.36 8.29Q33.36 7.71 33.13 7.23Q32.56 6.08 30.62 5.61Q26.01 4.46 20.15 4.46Q4.96 4.46 1.22 11.01Q0 13.14 0 15.98Q0 18.64 1.11 20.7Q1.22 20.91 1.34 21.11Q1.74 21.76 2.33 22.08Q2.92 22.41 3.69 22.41Q4.07 22.41 4.44 22.33Q5.22 22.16 5.92 21.62Q6.76 20.97 6.92 20.19Q6.96 20 6.96 19.81Q6.96 19.66 6.93 19.52Q6.87 19.15 6.66 18.8Q5.7 17.13 5.7 15.69Q5.7 14.58 6.16 13.7Q6.9 12.27 8.87 11.47Q12.04 10.17 18.71 10.17Q21.21 10.17 24.09 10.46L23.22 17.7Q22.94 20.4 22.41 23.8Q13.96 26.88 8.77 31.55Q5.14 34.83 4.06 38.8Q3.59 40.5 3.59 42.32Q3.59 44.46 4.47 46.15Q4.99 47.15 5.82 47.98Q6.15 48.32 6.52 48.6Q8.65 50.25 12.04 50.25Q13.59 50.25 15.01 49.83Q26.07 46.61 29.85 18.43Q29.9 18.04 30.38 14.68Q30.71 12.18 30.8 11.17Q32.07 11.17 32.68 10.54Q32.71 10.5 32.75 10.46ZM67.48 8.73Q68.87 4.74 69.97 4.74Q70.14 4.74 70.28 4.79Q71.32 5.18 71.32 8.4Q71.32 13.05 69.31 18.69Q67.29 24.32 63.88 29.95Q63.97 24.52 65.03 18.62Q66.08 12.71 67.48 8.73ZM78.04 18.64Q79.05 19.58 81.06 19.58Q82.86 19.58 84.04 18.72Q84.21 18.6 84.37 18.45Q84.77 18.09 85.04 17.65Q85.62 16.71 85.62 15.41Q85.62 14.34 85.13 13.6Q84.88 13.24 84.52 12.96L84.51 12.95Q83.41 12.09 81.64 12.09Q80.15 12.09 79.03 12.73Q78.67 12.94 78.34 13.21Q77.64 13.82 77.32 14.58Q77.03 15.24 77.03 16.03Q77.03 17.35 77.66 18.22Q77.83 18.45 78.04 18.64ZM96.62 27.54Q96.96 27.45 97.33 27.45Q97.96 27.45 98.4 27.74Q98.57 27.85 98.71 28Q98.78 28.08 98.84 28.16Q99.21 28.68 99.21 29.47Q99.21 29.93 99.1 30.36Q98.78 31.59 97.57 32.58Q95.94 33.93 93.12 34.6L93.12 34.51Q93.12 31.58 94.33 29.51Q95.31 27.88 96.62 27.54ZM12.67 45.11L12.66 45.11Q11.73 45.11 11.08 44.69Q10.78 44.5 10.54 44.22Q9.78 43.33 9.78 41.7Q9.78 40.81 9.95 39.94Q11.19 33.64 21.5 29.13Q19.72 38.01 17.36 41.56Q15.02 45.1 12.67 45.11Z" fill="#A52424" fill-opacity="1.000000" fill-rule="evenodd"/>
</svg>
